M48
; DRILL file {KiCad 7.0.10-7.0.10~ubuntu22.04.1} date Sat 06 Jan 2024 02:48:33 PM EST
; FORMAT={-:-/ absolute / inch / decimal}
; #@! TF.CreationDate,2024-01-06T14:48:33-05:00
; #@! TF.GenerationSoftware,Kicad,Pcbnew,7.0.10-7.0.10~ubuntu22.04.1
; #@! TF.FileFunction,Plated,1,2,PTH
FMAT,2
INCH
; #@! TA.AperFunction,Plated,PTH,ViaDrill
T1C0.0157
; #@! TA.AperFunction,Plated,PTH,ComponentDrill
T2C0.0394
; #@! TA.AperFunction,Plated,PTH,ComponentDrill
T3C0.0433
%
G90
G05
T1
X1.0827Y-4.4094
X1.1024Y-5.187
X1.1122Y-3.5827
X1.1122Y-5.4134
X1.3976Y-5.4429
X1.4289Y-3.5382
X1.4327Y-3.5773
X1.5602Y-3.5198
X1.5846Y-3.8091
X1.5945Y-5.4429
X1.6043Y-5.2559
X1.7618Y-5.2559
X1.8012Y-5.4429
X1.8602Y-3.563
X1.939Y-5.0886
X1.9882Y-4.4291
X2.0079Y-4.1929
X2.0079Y-5.2559
X2.0098Y-3.9002
X2.0598Y-3.9502
X2.0772Y-4.0
X2.12Y-3.64
X2.1457Y-3.8287
X2.1752Y-3.5531
X2.1752Y-5.4429
X2.1823Y-3.68
X2.2343Y-4.6457
X2.25Y-4.35
X2.2835Y-3.7106
X2.3327Y-5.2559
X2.34Y-4.68
X2.35Y-4.62
X2.3727Y-4.1224
X2.381Y-4.5915
X2.41Y-4.11
X2.52Y-3.9
X2.5394Y-3.5827
X2.57Y-3.95
X2.5886Y-3.8287
X2.5995Y-4.67
X2.6181Y-3.6516
X2.6277Y-4.6415
X2.63Y-4.0
X2.6772Y-3.5925
X2.687Y-3.7992
X2.6969Y-4.7146
X2.7067Y-4.6063
X2.7461Y-3.8386
X2.7461Y-4.0748
X2.7854Y-3.7008
X2.8051Y-4.6063
X2.8642Y-4.0748
X2.8937Y-5.4173
X2.9035Y-4.6063
X2.9035Y-4.7146
X2.9035Y-5.5807
X2.9815Y-4.9062
X2.9823Y-4.4685
X3.0Y-3.9
X3.0Y-3.95
X3.0Y-4.0
X3.002Y-3.3169
X3.0315Y-5.1969
X3.0413Y-3.7303
X3.0807Y-5.5807
X3.1Y-3.9806
X3.1004Y-4.7146
X3.1496Y-4.5965
X3.189Y-5.4173
X3.1998Y-3.9806
X3.2297Y-4.7273
X3.2373Y-4.6887
X3.2579Y-3.6909
X3.3Y-3.9806
X3.3465Y-4.46
X3.35Y-4.9213
X3.3957Y-5.689
X3.4098Y-4.5998
X3.41Y-4.4585
X3.4195Y-4.6569
X3.4206Y-3.3169
X3.4252Y-5.1378
X3.4449Y-3.6516
X3.45Y-3.9
X3.45Y-3.95
X3.45Y-4.0
X3.45Y-4.4408
X3.45Y-4.6
X3.4848Y-5.2248
X3.5039Y-4.9311
X3.5138Y-3.8091
X3.5138Y-4.4291
X3.5138Y-4.5965
X3.5335Y-5.0295
X3.5531Y-4.0748
X3.5531Y-5.2756
X3.5536Y-4.4296
X3.5539Y-4.5962
X3.6298Y-5.0298
X3.7106Y-3.5433
X3.75Y-5.15
X3.7598Y-4.3307
X3.8091Y-5.1181
X3.8131Y-5.0054
X3.8189Y-4.0748
X3.8392Y-3.3169
X3.8976Y-5.4035
X3.9Y-4.95
X3.9149Y-3.8091
X3.937Y-4.3307
X3.9469Y-5.2559
X3.9567Y-4.8819
X3.9701Y-5.1287
X3.974Y-4.9849
X4.0157Y-4.0748
X4.074Y-4.9849
X4.0748Y-5.689
X4.0752Y-5.1417
X4.1339Y-4.3307
X4.1437Y-5.5512
X4.1634Y-5.3051
X4.2Y-4.4762
X4.2Y-4.6
X4.2028Y-4.9902
X4.2028Y-5.0394
X4.2028Y-5.0886
X4.2028Y-5.1476
X4.2579Y-3.3169
X4.3159Y-3.8091
X4.3701Y-5.187
X4.3799Y-4.6654
X4.4882Y-4.9902
X4.61Y-4.17
X4.6555Y-3.5531
X4.6765Y-3.3169
X4.7Y-4.45
X4.717Y-3.8091
X4.7539Y-5.689
X4.7835Y-5.2264
X4.8109Y-4.2109
X4.813Y-3.6516
X4.8425Y-5.502
X4.85Y-4.75
X4.88Y-4.37
X4.9114Y-3.5531
X5.0Y-4.5
X5.0Y-4.6
X5.02Y-4.25
X5.05Y-4.9
X5.0787Y-4.285
X5.0951Y-3.3169
X5.116Y-4.784
X5.1181Y-3.8091
X5.2756Y-4.498
X5.3614Y-4.4819
X5.4134Y-3.5531
X5.452Y-4.387
X5.4528Y-3.7008
X5.4528Y-4.0059
X5.4528Y-4.6457
X5.4528Y-5.0394
X5.4528Y-5.4429
X5.4528Y-5.689
T2
X1.1Y-3.35
X1.1Y-3.45
X1.1Y-5.55
X1.1Y-5.65
X1.2Y-3.35
X1.2Y-3.45
X1.2Y-5.55
X1.2Y-5.65
X1.3Y-3.35
X1.3Y-3.45
X1.3Y-5.55
X1.3Y-5.65
X1.4Y-3.35
X1.4Y-3.45
X1.4Y-5.55
X1.4Y-5.65
X1.5Y-3.35
X1.5Y-3.45
X1.5Y-5.55
X1.5Y-5.65
X1.6Y-3.35
X1.6Y-3.45
X1.6Y-5.55
X1.6Y-5.65
X1.7Y-3.35
X1.7Y-3.45
X1.7Y-5.55
X1.7Y-5.65
X1.8Y-3.35
X1.8Y-3.45
X1.8Y-5.55
X1.8Y-5.65
X1.9Y-3.35
X1.9Y-3.45
X1.9Y-5.55
X1.9Y-5.65
X2.0Y-3.35
X2.0Y-3.45
X2.0Y-5.55
X2.0Y-5.65
X2.1Y-3.35
X2.1Y-3.45
X2.1Y-5.55
X2.1Y-5.65
X2.2Y-3.35
X2.2Y-3.45
X2.2Y-5.55
X2.2Y-5.65
X2.3Y-3.35
X2.3Y-3.45
X2.3Y-5.55
X2.3Y-5.65
X2.4Y-3.35
X2.4Y-3.45
X2.4Y-5.55
X2.4Y-5.65
X2.5Y-3.35
X2.5Y-3.45
X2.5Y-5.55
X2.5Y-5.65
X2.6Y-3.35
X2.6Y-3.45
X2.6Y-5.55
X2.6Y-5.65
X2.7Y-3.35
X2.7Y-3.45
X2.7Y-5.55
X2.7Y-5.65
X2.8Y-3.35
X2.8Y-3.45
X2.8Y-5.55
X2.8Y-5.65
X3.6Y-3.45
X3.6Y-5.55
X3.7Y-3.45
X3.7Y-5.55
X3.8Y-3.45
X3.8Y-5.55
X3.9Y-3.45
X3.9Y-5.55
X4.0Y-3.45
X4.0Y-5.55
X4.2988Y-3.45
X4.3Y-5.551
X4.3988Y-3.45
X4.4Y-5.551
X4.4988Y-3.45
X4.5Y-5.551
X4.5988Y-3.45
X4.6Y-5.551
X4.6988Y-3.45
X4.7Y-5.551
X5.0Y-3.45
X5.0Y-5.55
X5.1Y-3.45
X5.1Y-5.55
X5.2Y-3.45
X5.2Y-5.55
X5.2492Y-3.8976
X5.2492Y-3.9976
X5.2492Y-4.0976
X5.2492Y-4.1976
X5.2492Y-4.2976
X5.25Y-4.7488
X5.25Y-4.8488
X5.25Y-4.9488
X5.25Y-5.0488
X5.25Y-5.1488
X5.3Y-3.45
X5.3Y-5.55
X5.3492Y-3.8976
X5.3492Y-3.9976
X5.3492Y-4.0976
X5.3492Y-4.1976
X5.3492Y-4.2976
X5.35Y-4.7488
X5.35Y-4.8488
X5.35Y-4.9488
X5.35Y-5.0488
X5.35Y-5.1488
X5.4Y-3.45
X5.4Y-5.55
T3
X2.15Y-4.2
X2.15Y-4.8
X2.25Y-4.2
X2.25Y-4.8
X2.35Y-4.2
X2.35Y-4.8
X2.45Y-4.2
X2.45Y-4.8
X2.55Y-4.2
X2.55Y-4.8
X2.65Y-4.2
X2.65Y-4.8
X2.75Y-4.2
X2.75Y-4.8
X2.85Y-4.2
X2.85Y-4.8
X2.95Y-4.2
X2.95Y-4.8
X3.05Y-4.2
X3.05Y-4.8
X3.15Y-4.2
X3.15Y-4.8
X3.25Y-4.2
X3.25Y-4.8
X3.35Y-4.2
X3.35Y-4.8
X3.45Y-4.2
X3.45Y-4.8
X3.55Y-4.2
X3.55Y-4.8
X3.65Y-4.2
X3.65Y-4.8
X3.75Y-4.2
X3.75Y-4.8
X3.85Y-4.2
X3.85Y-4.8
X3.95Y-4.2
X3.95Y-4.8
X4.05Y-4.2
X4.05Y-4.8
X4.15Y-4.2
X4.15Y-4.8
X4.25Y-4.2
X4.25Y-4.8
X4.35Y-4.2
X4.35Y-4.8
X4.45Y-4.2
X4.45Y-4.8
M30
