%TF.GenerationSoftware,KiCad,Pcbnew,7.0.10-7.0.10~ubuntu22.04.1*%
%TF.CreationDate,2024-01-06T14:48:30-05:00*%
%TF.ProjectId,Teensy41_DualMotor,5465656e-7379-4343-915f-4475616c4d6f,1*%
%TF.SameCoordinates,Original*%
%TF.FileFunction,Drillmap*%
%TF.FilePolarity,Positive*%
%FSLAX45Y45*%
G04 Gerber Fmt 4.5, Leading zero omitted, Abs format (unit mm)*
G04 Created by KiCad (PCBNEW 7.0.10-7.0.10~ubuntu22.04.1) date 2024-01-06 14:48:30*
%MOMM*%
%LPD*%
G01*
G04 APERTURE LIST*
%ADD10C,0.100000*%
%ADD11C,0.200000*%
G04 APERTURE END LIST*
D10*
X14097772Y-8254972D02*
G75*
G03*
X13970000Y-8128000I-131772J-4828D01*
G01*
X12827000Y-13462000D02*
G75*
G03*
X12573000Y-13462000I-127000J0D01*
G01*
X12573000Y-13462000D02*
G75*
G03*
X12827000Y-13462000I127000J0D01*
G01*
X2413000Y-14554200D02*
X2413000Y-14605000D01*
X12823462Y-9398000D02*
G75*
G03*
X12569462Y-9398000I-127000J0D01*
G01*
X12569462Y-9398000D02*
G75*
G03*
X12823462Y-9398000I127000J0D01*
G01*
X13970000Y-8128000D02*
X2540000Y-8128000D01*
X2540000Y-14732000D02*
X13970000Y-14732000D01*
X13970000Y-14732000D02*
G75*
G03*
X14097000Y-14605000I0J127000D01*
G01*
X2413000Y-8255000D02*
X2413000Y-14554200D01*
X2540000Y-8128000D02*
G75*
G03*
X2413000Y-8255000I0J-127000D01*
G01*
X3937000Y-13462000D02*
G75*
G03*
X3683000Y-13462000I-127000J0D01*
G01*
X3683000Y-13462000D02*
G75*
G03*
X3937000Y-13462000I127000J0D01*
G01*
X2413000Y-14605000D02*
G75*
G03*
X2540000Y-14732000I127000J0D01*
G01*
X3937000Y-9398000D02*
G75*
G03*
X3683000Y-9398000I-127000J0D01*
G01*
X3683000Y-9398000D02*
G75*
G03*
X3937000Y-9398000I127000J0D01*
G01*
X14097000Y-14605000D02*
X14097000Y-8255000D01*
D11*
X2668777Y-15048484D02*
X2668777Y-14848484D01*
X2668777Y-14848484D02*
X2716396Y-14848484D01*
X2716396Y-14848484D02*
X2744967Y-14858008D01*
X2744967Y-14858008D02*
X2764015Y-14877055D01*
X2764015Y-14877055D02*
X2773539Y-14896103D01*
X2773539Y-14896103D02*
X2783063Y-14934198D01*
X2783063Y-14934198D02*
X2783063Y-14962769D01*
X2783063Y-14962769D02*
X2773539Y-15000865D01*
X2773539Y-15000865D02*
X2764015Y-15019912D01*
X2764015Y-15019912D02*
X2744967Y-15038960D01*
X2744967Y-15038960D02*
X2716396Y-15048484D01*
X2716396Y-15048484D02*
X2668777Y-15048484D01*
X2868777Y-15048484D02*
X2868777Y-14915150D01*
X2868777Y-14953246D02*
X2878301Y-14934198D01*
X2878301Y-14934198D02*
X2887824Y-14924674D01*
X2887824Y-14924674D02*
X2906872Y-14915150D01*
X2906872Y-14915150D02*
X2925920Y-14915150D01*
X2992586Y-15048484D02*
X2992586Y-14915150D01*
X2992586Y-14848484D02*
X2983062Y-14858008D01*
X2983062Y-14858008D02*
X2992586Y-14867531D01*
X2992586Y-14867531D02*
X3002110Y-14858008D01*
X3002110Y-14858008D02*
X2992586Y-14848484D01*
X2992586Y-14848484D02*
X2992586Y-14867531D01*
X3116396Y-15048484D02*
X3097348Y-15038960D01*
X3097348Y-15038960D02*
X3087824Y-15019912D01*
X3087824Y-15019912D02*
X3087824Y-14848484D01*
X3221158Y-15048484D02*
X3202110Y-15038960D01*
X3202110Y-15038960D02*
X3192586Y-15019912D01*
X3192586Y-15019912D02*
X3192586Y-14848484D01*
X3449729Y-15048484D02*
X3449729Y-14848484D01*
X3449729Y-14848484D02*
X3516396Y-14991341D01*
X3516396Y-14991341D02*
X3583062Y-14848484D01*
X3583062Y-14848484D02*
X3583062Y-15048484D01*
X3764015Y-15048484D02*
X3764015Y-14943722D01*
X3764015Y-14943722D02*
X3754491Y-14924674D01*
X3754491Y-14924674D02*
X3735443Y-14915150D01*
X3735443Y-14915150D02*
X3697348Y-14915150D01*
X3697348Y-14915150D02*
X3678301Y-14924674D01*
X3764015Y-15038960D02*
X3744967Y-15048484D01*
X3744967Y-15048484D02*
X3697348Y-15048484D01*
X3697348Y-15048484D02*
X3678301Y-15038960D01*
X3678301Y-15038960D02*
X3668777Y-15019912D01*
X3668777Y-15019912D02*
X3668777Y-15000865D01*
X3668777Y-15000865D02*
X3678301Y-14981817D01*
X3678301Y-14981817D02*
X3697348Y-14972293D01*
X3697348Y-14972293D02*
X3744967Y-14972293D01*
X3744967Y-14972293D02*
X3764015Y-14962769D01*
X3859253Y-14915150D02*
X3859253Y-15115150D01*
X3859253Y-14924674D02*
X3878301Y-14915150D01*
X3878301Y-14915150D02*
X3916396Y-14915150D01*
X3916396Y-14915150D02*
X3935443Y-14924674D01*
X3935443Y-14924674D02*
X3944967Y-14934198D01*
X3944967Y-14934198D02*
X3954491Y-14953246D01*
X3954491Y-14953246D02*
X3954491Y-15010388D01*
X3954491Y-15010388D02*
X3944967Y-15029436D01*
X3944967Y-15029436D02*
X3935443Y-15038960D01*
X3935443Y-15038960D02*
X3916396Y-15048484D01*
X3916396Y-15048484D02*
X3878301Y-15048484D01*
X3878301Y-15048484D02*
X3859253Y-15038960D01*
X4040205Y-15029436D02*
X4049729Y-15038960D01*
X4049729Y-15038960D02*
X4040205Y-15048484D01*
X4040205Y-15048484D02*
X4030682Y-15038960D01*
X4030682Y-15038960D02*
X4040205Y-15029436D01*
X4040205Y-15029436D02*
X4040205Y-15048484D01*
X4040205Y-14924674D02*
X4049729Y-14934198D01*
X4049729Y-14934198D02*
X4040205Y-14943722D01*
X4040205Y-14943722D02*
X4030682Y-14934198D01*
X4030682Y-14934198D02*
X4040205Y-14924674D01*
X4040205Y-14924674D02*
X4040205Y-14943722D01*
M02*
