G04 #@! TF.GenerationSoftware,KiCad,Pcbnew,7.0.10-7.0.10~ubuntu22.04.1*
G04 #@! TF.CreationDate,2024-01-06T14:45:44-05:00*
G04 #@! TF.ProjectId,Teensy41_DualMotor,5465656e-7379-4343-915f-4475616c4d6f,1*
G04 #@! TF.SameCoordinates,Original*
G04 #@! TF.FileFunction,Legend,Bot*
G04 #@! TF.FilePolarity,Positive*
%FSLAX46Y46*%
G04 Gerber Fmt 4.6, Leading zero omitted, Abs format (unit mm)*
G04 Created by KiCad (PCBNEW 7.0.10-7.0.10~ubuntu22.04.1) date 2024-01-06 14:45:44*
%MOMM*%
%LPD*%
G01*
G04 APERTURE LIST*
G04 Aperture macros list*
%AMRoundRect*
0 Rectangle with rounded corners*
0 $1 Rounding radius*
0 $2 $3 $4 $5 $6 $7 $8 $9 X,Y pos of 4 corners*
0 Add a 4 corners polygon primitive as box body*
4,1,4,$2,$3,$4,$5,$6,$7,$8,$9,$2,$3,0*
0 Add four circle primitives for the rounded corners*
1,1,$1+$1,$2,$3*
1,1,$1+$1,$4,$5*
1,1,$1+$1,$6,$7*
1,1,$1+$1,$8,$9*
0 Add four rect primitives between the rounded corners*
20,1,$1+$1,$2,$3,$4,$5,0*
20,1,$1+$1,$4,$5,$6,$7,0*
20,1,$1+$1,$6,$7,$8,$9,0*
20,1,$1+$1,$8,$9,$2,$3,0*%
%AMFreePoly0*
4,1,19,0.500000,-0.750000,0.000000,-0.750000,0.000000,-0.744911,-0.071157,-0.744911,-0.207708,-0.704816,-0.327430,-0.627875,-0.420627,-0.520320,-0.479746,-0.390866,-0.500000,-0.250000,-0.500000,0.250000,-0.479746,0.390866,-0.420627,0.520320,-0.327430,0.627875,-0.207708,0.704816,-0.071157,0.744911,0.000000,0.744911,0.000000,0.750000,0.500000,0.750000,0.500000,-0.750000,0.500000,-0.750000,
$1*%
%AMFreePoly1*
4,1,19,0.000000,0.744911,0.071157,0.744911,0.207708,0.704816,0.327430,0.627875,0.420627,0.520320,0.479746,0.390866,0.500000,0.250000,0.500000,-0.250000,0.479746,-0.390866,0.420627,-0.520320,0.327430,-0.627875,0.207708,-0.704816,0.071157,-0.744911,0.000000,-0.744911,0.000000,-0.750000,-0.500000,-0.750000,-0.500000,0.750000,0.000000,0.750000,0.000000,0.744911,0.000000,0.744911,
$1*%
G04 Aperture macros list end*
%ADD10C,0.150000*%
%ADD11C,0.120000*%
%ADD12RoundRect,0.237500X0.237500X-0.250000X0.237500X0.250000X-0.237500X0.250000X-0.237500X-0.250000X0*%
%ADD13RoundRect,0.237500X-0.250000X-0.237500X0.250000X-0.237500X0.250000X0.237500X-0.250000X0.237500X0*%
%ADD14RoundRect,0.237500X-0.237500X0.250000X-0.237500X-0.250000X0.237500X-0.250000X0.237500X0.250000X0*%
%ADD15FreePoly0,90.000000*%
%ADD16FreePoly1,90.000000*%
%ADD17FreePoly0,270.000000*%
%ADD18FreePoly1,270.000000*%
%ADD19RoundRect,0.237500X-0.237500X0.300000X-0.237500X-0.300000X0.237500X-0.300000X0.237500X0.300000X0*%
%ADD20RoundRect,0.237500X0.237500X-0.300000X0.237500X0.300000X-0.237500X0.300000X-0.237500X-0.300000X0*%
%ADD21R,1.700000X1.700000*%
%ADD22O,1.700000X1.700000*%
%ADD23R,1.600000X1.600000*%
%ADD24C,1.600000*%
G04 APERTURE END LIST*
D10*
X83634819Y-127857142D02*
X83158628Y-127523809D01*
X83634819Y-127285714D02*
X82634819Y-127285714D01*
X82634819Y-127285714D02*
X82634819Y-127666666D01*
X82634819Y-127666666D02*
X82682438Y-127761904D01*
X82682438Y-127761904D02*
X82730057Y-127809523D01*
X82730057Y-127809523D02*
X82825295Y-127857142D01*
X82825295Y-127857142D02*
X82968152Y-127857142D01*
X82968152Y-127857142D02*
X83063390Y-127809523D01*
X83063390Y-127809523D02*
X83111009Y-127761904D01*
X83111009Y-127761904D02*
X83158628Y-127666666D01*
X83158628Y-127666666D02*
X83158628Y-127285714D01*
X83634819Y-128809523D02*
X83634819Y-128238095D01*
X83634819Y-128523809D02*
X82634819Y-128523809D01*
X82634819Y-128523809D02*
X82777676Y-128428571D01*
X82777676Y-128428571D02*
X82872914Y-128333333D01*
X82872914Y-128333333D02*
X82920533Y-128238095D01*
X83063390Y-129380952D02*
X83015771Y-129285714D01*
X83015771Y-129285714D02*
X82968152Y-129238095D01*
X82968152Y-129238095D02*
X82872914Y-129190476D01*
X82872914Y-129190476D02*
X82825295Y-129190476D01*
X82825295Y-129190476D02*
X82730057Y-129238095D01*
X82730057Y-129238095D02*
X82682438Y-129285714D01*
X82682438Y-129285714D02*
X82634819Y-129380952D01*
X82634819Y-129380952D02*
X82634819Y-129571428D01*
X82634819Y-129571428D02*
X82682438Y-129666666D01*
X82682438Y-129666666D02*
X82730057Y-129714285D01*
X82730057Y-129714285D02*
X82825295Y-129761904D01*
X82825295Y-129761904D02*
X82872914Y-129761904D01*
X82872914Y-129761904D02*
X82968152Y-129714285D01*
X82968152Y-129714285D02*
X83015771Y-129666666D01*
X83015771Y-129666666D02*
X83063390Y-129571428D01*
X83063390Y-129571428D02*
X83063390Y-129380952D01*
X83063390Y-129380952D02*
X83111009Y-129285714D01*
X83111009Y-129285714D02*
X83158628Y-129238095D01*
X83158628Y-129238095D02*
X83253866Y-129190476D01*
X83253866Y-129190476D02*
X83444342Y-129190476D01*
X83444342Y-129190476D02*
X83539580Y-129238095D01*
X83539580Y-129238095D02*
X83587200Y-129285714D01*
X83587200Y-129285714D02*
X83634819Y-129380952D01*
X83634819Y-129380952D02*
X83634819Y-129571428D01*
X83634819Y-129571428D02*
X83587200Y-129666666D01*
X83587200Y-129666666D02*
X83539580Y-129714285D01*
X83539580Y-129714285D02*
X83444342Y-129761904D01*
X83444342Y-129761904D02*
X83253866Y-129761904D01*
X83253866Y-129761904D02*
X83158628Y-129714285D01*
X83158628Y-129714285D02*
X83111009Y-129666666D01*
X83111009Y-129666666D02*
X83063390Y-129571428D01*
X102884819Y-116694642D02*
X102408628Y-116361309D01*
X102884819Y-116123214D02*
X101884819Y-116123214D01*
X101884819Y-116123214D02*
X101884819Y-116504166D01*
X101884819Y-116504166D02*
X101932438Y-116599404D01*
X101932438Y-116599404D02*
X101980057Y-116647023D01*
X101980057Y-116647023D02*
X102075295Y-116694642D01*
X102075295Y-116694642D02*
X102218152Y-116694642D01*
X102218152Y-116694642D02*
X102313390Y-116647023D01*
X102313390Y-116647023D02*
X102361009Y-116599404D01*
X102361009Y-116599404D02*
X102408628Y-116504166D01*
X102408628Y-116504166D02*
X102408628Y-116123214D01*
X102884819Y-117647023D02*
X102884819Y-117075595D01*
X102884819Y-117361309D02*
X101884819Y-117361309D01*
X101884819Y-117361309D02*
X102027676Y-117266071D01*
X102027676Y-117266071D02*
X102122914Y-117170833D01*
X102122914Y-117170833D02*
X102170533Y-117075595D01*
X101884819Y-117980357D02*
X101884819Y-118647023D01*
X101884819Y-118647023D02*
X102884819Y-118218452D01*
X90230357Y-120634819D02*
X90563690Y-120158628D01*
X90801785Y-120634819D02*
X90801785Y-119634819D01*
X90801785Y-119634819D02*
X90420833Y-119634819D01*
X90420833Y-119634819D02*
X90325595Y-119682438D01*
X90325595Y-119682438D02*
X90277976Y-119730057D01*
X90277976Y-119730057D02*
X90230357Y-119825295D01*
X90230357Y-119825295D02*
X90230357Y-119968152D01*
X90230357Y-119968152D02*
X90277976Y-120063390D01*
X90277976Y-120063390D02*
X90325595Y-120111009D01*
X90325595Y-120111009D02*
X90420833Y-120158628D01*
X90420833Y-120158628D02*
X90801785Y-120158628D01*
X89277976Y-120634819D02*
X89849404Y-120634819D01*
X89563690Y-120634819D02*
X89563690Y-119634819D01*
X89563690Y-119634819D02*
X89658928Y-119777676D01*
X89658928Y-119777676D02*
X89754166Y-119872914D01*
X89754166Y-119872914D02*
X89849404Y-119920533D01*
X88420833Y-119634819D02*
X88611309Y-119634819D01*
X88611309Y-119634819D02*
X88706547Y-119682438D01*
X88706547Y-119682438D02*
X88754166Y-119730057D01*
X88754166Y-119730057D02*
X88849404Y-119872914D01*
X88849404Y-119872914D02*
X88897023Y-120063390D01*
X88897023Y-120063390D02*
X88897023Y-120444342D01*
X88897023Y-120444342D02*
X88849404Y-120539580D01*
X88849404Y-120539580D02*
X88801785Y-120587200D01*
X88801785Y-120587200D02*
X88706547Y-120634819D01*
X88706547Y-120634819D02*
X88516071Y-120634819D01*
X88516071Y-120634819D02*
X88420833Y-120587200D01*
X88420833Y-120587200D02*
X88373214Y-120539580D01*
X88373214Y-120539580D02*
X88325595Y-120444342D01*
X88325595Y-120444342D02*
X88325595Y-120206247D01*
X88325595Y-120206247D02*
X88373214Y-120111009D01*
X88373214Y-120111009D02*
X88420833Y-120063390D01*
X88420833Y-120063390D02*
X88516071Y-120015771D01*
X88516071Y-120015771D02*
X88706547Y-120015771D01*
X88706547Y-120015771D02*
X88801785Y-120063390D01*
X88801785Y-120063390D02*
X88849404Y-120111009D01*
X88849404Y-120111009D02*
X88897023Y-120206247D01*
X82892857Y-118454819D02*
X83226190Y-117978628D01*
X83464285Y-118454819D02*
X83464285Y-117454819D01*
X83464285Y-117454819D02*
X83083333Y-117454819D01*
X83083333Y-117454819D02*
X82988095Y-117502438D01*
X82988095Y-117502438D02*
X82940476Y-117550057D01*
X82940476Y-117550057D02*
X82892857Y-117645295D01*
X82892857Y-117645295D02*
X82892857Y-117788152D01*
X82892857Y-117788152D02*
X82940476Y-117883390D01*
X82940476Y-117883390D02*
X82988095Y-117931009D01*
X82988095Y-117931009D02*
X83083333Y-117978628D01*
X83083333Y-117978628D02*
X83464285Y-117978628D01*
X81940476Y-118454819D02*
X82511904Y-118454819D01*
X82226190Y-118454819D02*
X82226190Y-117454819D01*
X82226190Y-117454819D02*
X82321428Y-117597676D01*
X82321428Y-117597676D02*
X82416666Y-117692914D01*
X82416666Y-117692914D02*
X82511904Y-117740533D01*
X81035714Y-117454819D02*
X81511904Y-117454819D01*
X81511904Y-117454819D02*
X81559523Y-117931009D01*
X81559523Y-117931009D02*
X81511904Y-117883390D01*
X81511904Y-117883390D02*
X81416666Y-117835771D01*
X81416666Y-117835771D02*
X81178571Y-117835771D01*
X81178571Y-117835771D02*
X81083333Y-117883390D01*
X81083333Y-117883390D02*
X81035714Y-117931009D01*
X81035714Y-117931009D02*
X80988095Y-118026247D01*
X80988095Y-118026247D02*
X80988095Y-118264342D01*
X80988095Y-118264342D02*
X81035714Y-118359580D01*
X81035714Y-118359580D02*
X81083333Y-118407200D01*
X81083333Y-118407200D02*
X81178571Y-118454819D01*
X81178571Y-118454819D02*
X81416666Y-118454819D01*
X81416666Y-118454819D02*
X81511904Y-118407200D01*
X81511904Y-118407200D02*
X81559523Y-118359580D01*
X78282857Y-118564819D02*
X78616190Y-118088628D01*
X78854285Y-118564819D02*
X78854285Y-117564819D01*
X78854285Y-117564819D02*
X78473333Y-117564819D01*
X78473333Y-117564819D02*
X78378095Y-117612438D01*
X78378095Y-117612438D02*
X78330476Y-117660057D01*
X78330476Y-117660057D02*
X78282857Y-117755295D01*
X78282857Y-117755295D02*
X78282857Y-117898152D01*
X78282857Y-117898152D02*
X78330476Y-117993390D01*
X78330476Y-117993390D02*
X78378095Y-118041009D01*
X78378095Y-118041009D02*
X78473333Y-118088628D01*
X78473333Y-118088628D02*
X78854285Y-118088628D01*
X77330476Y-118564819D02*
X77901904Y-118564819D01*
X77616190Y-118564819D02*
X77616190Y-117564819D01*
X77616190Y-117564819D02*
X77711428Y-117707676D01*
X77711428Y-117707676D02*
X77806666Y-117802914D01*
X77806666Y-117802914D02*
X77901904Y-117850533D01*
X76473333Y-117898152D02*
X76473333Y-118564819D01*
X76711428Y-117517200D02*
X76949523Y-118231485D01*
X76949523Y-118231485D02*
X76330476Y-118231485D01*
X73454819Y-110944642D02*
X72978628Y-110611309D01*
X73454819Y-110373214D02*
X72454819Y-110373214D01*
X72454819Y-110373214D02*
X72454819Y-110754166D01*
X72454819Y-110754166D02*
X72502438Y-110849404D01*
X72502438Y-110849404D02*
X72550057Y-110897023D01*
X72550057Y-110897023D02*
X72645295Y-110944642D01*
X72645295Y-110944642D02*
X72788152Y-110944642D01*
X72788152Y-110944642D02*
X72883390Y-110897023D01*
X72883390Y-110897023D02*
X72931009Y-110849404D01*
X72931009Y-110849404D02*
X72978628Y-110754166D01*
X72978628Y-110754166D02*
X72978628Y-110373214D01*
X73454819Y-111897023D02*
X73454819Y-111325595D01*
X73454819Y-111611309D02*
X72454819Y-111611309D01*
X72454819Y-111611309D02*
X72597676Y-111516071D01*
X72597676Y-111516071D02*
X72692914Y-111420833D01*
X72692914Y-111420833D02*
X72740533Y-111325595D01*
X72454819Y-112230357D02*
X72454819Y-112849404D01*
X72454819Y-112849404D02*
X72835771Y-112516071D01*
X72835771Y-112516071D02*
X72835771Y-112658928D01*
X72835771Y-112658928D02*
X72883390Y-112754166D01*
X72883390Y-112754166D02*
X72931009Y-112801785D01*
X72931009Y-112801785D02*
X73026247Y-112849404D01*
X73026247Y-112849404D02*
X73264342Y-112849404D01*
X73264342Y-112849404D02*
X73359580Y-112801785D01*
X73359580Y-112801785D02*
X73407200Y-112754166D01*
X73407200Y-112754166D02*
X73454819Y-112658928D01*
X73454819Y-112658928D02*
X73454819Y-112373214D01*
X73454819Y-112373214D02*
X73407200Y-112277976D01*
X73407200Y-112277976D02*
X73359580Y-112230357D01*
X81004819Y-123440476D02*
X81719104Y-123440476D01*
X81719104Y-123440476D02*
X81861961Y-123392857D01*
X81861961Y-123392857D02*
X81957200Y-123297619D01*
X81957200Y-123297619D02*
X82004819Y-123154762D01*
X82004819Y-123154762D02*
X82004819Y-123059524D01*
X82004819Y-123916667D02*
X81004819Y-123916667D01*
X81004819Y-123916667D02*
X81004819Y-124297619D01*
X81004819Y-124297619D02*
X81052438Y-124392857D01*
X81052438Y-124392857D02*
X81100057Y-124440476D01*
X81100057Y-124440476D02*
X81195295Y-124488095D01*
X81195295Y-124488095D02*
X81338152Y-124488095D01*
X81338152Y-124488095D02*
X81433390Y-124440476D01*
X81433390Y-124440476D02*
X81481009Y-124392857D01*
X81481009Y-124392857D02*
X81528628Y-124297619D01*
X81528628Y-124297619D02*
X81528628Y-123916667D01*
X82004819Y-125440476D02*
X82004819Y-124869048D01*
X82004819Y-125154762D02*
X81004819Y-125154762D01*
X81004819Y-125154762D02*
X81147676Y-125059524D01*
X81147676Y-125059524D02*
X81242914Y-124964286D01*
X81242914Y-124964286D02*
X81290533Y-124869048D01*
X81100057Y-125821429D02*
X81052438Y-125869048D01*
X81052438Y-125869048D02*
X81004819Y-125964286D01*
X81004819Y-125964286D02*
X81004819Y-126202381D01*
X81004819Y-126202381D02*
X81052438Y-126297619D01*
X81052438Y-126297619D02*
X81100057Y-126345238D01*
X81100057Y-126345238D02*
X81195295Y-126392857D01*
X81195295Y-126392857D02*
X81290533Y-126392857D01*
X81290533Y-126392857D02*
X81433390Y-126345238D01*
X81433390Y-126345238D02*
X82004819Y-125773810D01*
X82004819Y-125773810D02*
X82004819Y-126392857D01*
X95404819Y-117690476D02*
X96119104Y-117690476D01*
X96119104Y-117690476D02*
X96261961Y-117642857D01*
X96261961Y-117642857D02*
X96357200Y-117547619D01*
X96357200Y-117547619D02*
X96404819Y-117404762D01*
X96404819Y-117404762D02*
X96404819Y-117309524D01*
X96404819Y-118166667D02*
X95404819Y-118166667D01*
X95404819Y-118166667D02*
X95404819Y-118547619D01*
X95404819Y-118547619D02*
X95452438Y-118642857D01*
X95452438Y-118642857D02*
X95500057Y-118690476D01*
X95500057Y-118690476D02*
X95595295Y-118738095D01*
X95595295Y-118738095D02*
X95738152Y-118738095D01*
X95738152Y-118738095D02*
X95833390Y-118690476D01*
X95833390Y-118690476D02*
X95881009Y-118642857D01*
X95881009Y-118642857D02*
X95928628Y-118547619D01*
X95928628Y-118547619D02*
X95928628Y-118166667D01*
X96404819Y-119690476D02*
X96404819Y-119119048D01*
X96404819Y-119404762D02*
X95404819Y-119404762D01*
X95404819Y-119404762D02*
X95547676Y-119309524D01*
X95547676Y-119309524D02*
X95642914Y-119214286D01*
X95642914Y-119214286D02*
X95690533Y-119119048D01*
X96404819Y-120642857D02*
X96404819Y-120071429D01*
X96404819Y-120357143D02*
X95404819Y-120357143D01*
X95404819Y-120357143D02*
X95547676Y-120261905D01*
X95547676Y-120261905D02*
X95642914Y-120166667D01*
X95642914Y-120166667D02*
X95690533Y-120071429D01*
X91904819Y-117690476D02*
X92619104Y-117690476D01*
X92619104Y-117690476D02*
X92761961Y-117642857D01*
X92761961Y-117642857D02*
X92857200Y-117547619D01*
X92857200Y-117547619D02*
X92904819Y-117404762D01*
X92904819Y-117404762D02*
X92904819Y-117309524D01*
X92904819Y-118166667D02*
X91904819Y-118166667D01*
X91904819Y-118166667D02*
X91904819Y-118547619D01*
X91904819Y-118547619D02*
X91952438Y-118642857D01*
X91952438Y-118642857D02*
X92000057Y-118690476D01*
X92000057Y-118690476D02*
X92095295Y-118738095D01*
X92095295Y-118738095D02*
X92238152Y-118738095D01*
X92238152Y-118738095D02*
X92333390Y-118690476D01*
X92333390Y-118690476D02*
X92381009Y-118642857D01*
X92381009Y-118642857D02*
X92428628Y-118547619D01*
X92428628Y-118547619D02*
X92428628Y-118166667D01*
X92904819Y-119690476D02*
X92904819Y-119119048D01*
X92904819Y-119404762D02*
X91904819Y-119404762D01*
X91904819Y-119404762D02*
X92047676Y-119309524D01*
X92047676Y-119309524D02*
X92142914Y-119214286D01*
X92142914Y-119214286D02*
X92190533Y-119119048D01*
X91904819Y-120309524D02*
X91904819Y-120404762D01*
X91904819Y-120404762D02*
X91952438Y-120500000D01*
X91952438Y-120500000D02*
X92000057Y-120547619D01*
X92000057Y-120547619D02*
X92095295Y-120595238D01*
X92095295Y-120595238D02*
X92285771Y-120642857D01*
X92285771Y-120642857D02*
X92523866Y-120642857D01*
X92523866Y-120642857D02*
X92714342Y-120595238D01*
X92714342Y-120595238D02*
X92809580Y-120547619D01*
X92809580Y-120547619D02*
X92857200Y-120500000D01*
X92857200Y-120500000D02*
X92904819Y-120404762D01*
X92904819Y-120404762D02*
X92904819Y-120309524D01*
X92904819Y-120309524D02*
X92857200Y-120214286D01*
X92857200Y-120214286D02*
X92809580Y-120166667D01*
X92809580Y-120166667D02*
X92714342Y-120119048D01*
X92714342Y-120119048D02*
X92523866Y-120071429D01*
X92523866Y-120071429D02*
X92285771Y-120071429D01*
X92285771Y-120071429D02*
X92095295Y-120119048D01*
X92095295Y-120119048D02*
X92000057Y-120166667D01*
X92000057Y-120166667D02*
X91952438Y-120214286D01*
X91952438Y-120214286D02*
X91904819Y-120309524D01*
X86504819Y-108916666D02*
X87219104Y-108916666D01*
X87219104Y-108916666D02*
X87361961Y-108869047D01*
X87361961Y-108869047D02*
X87457200Y-108773809D01*
X87457200Y-108773809D02*
X87504819Y-108630952D01*
X87504819Y-108630952D02*
X87504819Y-108535714D01*
X87504819Y-109392857D02*
X86504819Y-109392857D01*
X86504819Y-109392857D02*
X86504819Y-109773809D01*
X86504819Y-109773809D02*
X86552438Y-109869047D01*
X86552438Y-109869047D02*
X86600057Y-109916666D01*
X86600057Y-109916666D02*
X86695295Y-109964285D01*
X86695295Y-109964285D02*
X86838152Y-109964285D01*
X86838152Y-109964285D02*
X86933390Y-109916666D01*
X86933390Y-109916666D02*
X86981009Y-109869047D01*
X86981009Y-109869047D02*
X87028628Y-109773809D01*
X87028628Y-109773809D02*
X87028628Y-109392857D01*
X87504819Y-110440476D02*
X87504819Y-110630952D01*
X87504819Y-110630952D02*
X87457200Y-110726190D01*
X87457200Y-110726190D02*
X87409580Y-110773809D01*
X87409580Y-110773809D02*
X87266723Y-110869047D01*
X87266723Y-110869047D02*
X87076247Y-110916666D01*
X87076247Y-110916666D02*
X86695295Y-110916666D01*
X86695295Y-110916666D02*
X86600057Y-110869047D01*
X86600057Y-110869047D02*
X86552438Y-110821428D01*
X86552438Y-110821428D02*
X86504819Y-110726190D01*
X86504819Y-110726190D02*
X86504819Y-110535714D01*
X86504819Y-110535714D02*
X86552438Y-110440476D01*
X86552438Y-110440476D02*
X86600057Y-110392857D01*
X86600057Y-110392857D02*
X86695295Y-110345238D01*
X86695295Y-110345238D02*
X86933390Y-110345238D01*
X86933390Y-110345238D02*
X87028628Y-110392857D01*
X87028628Y-110392857D02*
X87076247Y-110440476D01*
X87076247Y-110440476D02*
X87123866Y-110535714D01*
X87123866Y-110535714D02*
X87123866Y-110726190D01*
X87123866Y-110726190D02*
X87076247Y-110821428D01*
X87076247Y-110821428D02*
X87028628Y-110869047D01*
X87028628Y-110869047D02*
X86933390Y-110916666D01*
X81954819Y-102986666D02*
X82669104Y-102986666D01*
X82669104Y-102986666D02*
X82811961Y-102939047D01*
X82811961Y-102939047D02*
X82907200Y-102843809D01*
X82907200Y-102843809D02*
X82954819Y-102700952D01*
X82954819Y-102700952D02*
X82954819Y-102605714D01*
X82954819Y-103462857D02*
X81954819Y-103462857D01*
X81954819Y-103462857D02*
X81954819Y-103843809D01*
X81954819Y-103843809D02*
X82002438Y-103939047D01*
X82002438Y-103939047D02*
X82050057Y-103986666D01*
X82050057Y-103986666D02*
X82145295Y-104034285D01*
X82145295Y-104034285D02*
X82288152Y-104034285D01*
X82288152Y-104034285D02*
X82383390Y-103986666D01*
X82383390Y-103986666D02*
X82431009Y-103939047D01*
X82431009Y-103939047D02*
X82478628Y-103843809D01*
X82478628Y-103843809D02*
X82478628Y-103462857D01*
X82383390Y-104605714D02*
X82335771Y-104510476D01*
X82335771Y-104510476D02*
X82288152Y-104462857D01*
X82288152Y-104462857D02*
X82192914Y-104415238D01*
X82192914Y-104415238D02*
X82145295Y-104415238D01*
X82145295Y-104415238D02*
X82050057Y-104462857D01*
X82050057Y-104462857D02*
X82002438Y-104510476D01*
X82002438Y-104510476D02*
X81954819Y-104605714D01*
X81954819Y-104605714D02*
X81954819Y-104796190D01*
X81954819Y-104796190D02*
X82002438Y-104891428D01*
X82002438Y-104891428D02*
X82050057Y-104939047D01*
X82050057Y-104939047D02*
X82145295Y-104986666D01*
X82145295Y-104986666D02*
X82192914Y-104986666D01*
X82192914Y-104986666D02*
X82288152Y-104939047D01*
X82288152Y-104939047D02*
X82335771Y-104891428D01*
X82335771Y-104891428D02*
X82383390Y-104796190D01*
X82383390Y-104796190D02*
X82383390Y-104605714D01*
X82383390Y-104605714D02*
X82431009Y-104510476D01*
X82431009Y-104510476D02*
X82478628Y-104462857D01*
X82478628Y-104462857D02*
X82573866Y-104415238D01*
X82573866Y-104415238D02*
X82764342Y-104415238D01*
X82764342Y-104415238D02*
X82859580Y-104462857D01*
X82859580Y-104462857D02*
X82907200Y-104510476D01*
X82907200Y-104510476D02*
X82954819Y-104605714D01*
X82954819Y-104605714D02*
X82954819Y-104796190D01*
X82954819Y-104796190D02*
X82907200Y-104891428D01*
X82907200Y-104891428D02*
X82859580Y-104939047D01*
X82859580Y-104939047D02*
X82764342Y-104986666D01*
X82764342Y-104986666D02*
X82573866Y-104986666D01*
X82573866Y-104986666D02*
X82478628Y-104939047D01*
X82478628Y-104939047D02*
X82431009Y-104891428D01*
X82431009Y-104891428D02*
X82383390Y-104796190D01*
X76954819Y-108916666D02*
X77669104Y-108916666D01*
X77669104Y-108916666D02*
X77811961Y-108869047D01*
X77811961Y-108869047D02*
X77907200Y-108773809D01*
X77907200Y-108773809D02*
X77954819Y-108630952D01*
X77954819Y-108630952D02*
X77954819Y-108535714D01*
X77954819Y-109392857D02*
X76954819Y-109392857D01*
X76954819Y-109392857D02*
X76954819Y-109773809D01*
X76954819Y-109773809D02*
X77002438Y-109869047D01*
X77002438Y-109869047D02*
X77050057Y-109916666D01*
X77050057Y-109916666D02*
X77145295Y-109964285D01*
X77145295Y-109964285D02*
X77288152Y-109964285D01*
X77288152Y-109964285D02*
X77383390Y-109916666D01*
X77383390Y-109916666D02*
X77431009Y-109869047D01*
X77431009Y-109869047D02*
X77478628Y-109773809D01*
X77478628Y-109773809D02*
X77478628Y-109392857D01*
X76954819Y-110297619D02*
X76954819Y-110964285D01*
X76954819Y-110964285D02*
X77954819Y-110535714D01*
X78679580Y-127857142D02*
X78727200Y-127809523D01*
X78727200Y-127809523D02*
X78774819Y-127666666D01*
X78774819Y-127666666D02*
X78774819Y-127571428D01*
X78774819Y-127571428D02*
X78727200Y-127428571D01*
X78727200Y-127428571D02*
X78631961Y-127333333D01*
X78631961Y-127333333D02*
X78536723Y-127285714D01*
X78536723Y-127285714D02*
X78346247Y-127238095D01*
X78346247Y-127238095D02*
X78203390Y-127238095D01*
X78203390Y-127238095D02*
X78012914Y-127285714D01*
X78012914Y-127285714D02*
X77917676Y-127333333D01*
X77917676Y-127333333D02*
X77822438Y-127428571D01*
X77822438Y-127428571D02*
X77774819Y-127571428D01*
X77774819Y-127571428D02*
X77774819Y-127666666D01*
X77774819Y-127666666D02*
X77822438Y-127809523D01*
X77822438Y-127809523D02*
X77870057Y-127857142D01*
X77870057Y-128238095D02*
X77822438Y-128285714D01*
X77822438Y-128285714D02*
X77774819Y-128380952D01*
X77774819Y-128380952D02*
X77774819Y-128619047D01*
X77774819Y-128619047D02*
X77822438Y-128714285D01*
X77822438Y-128714285D02*
X77870057Y-128761904D01*
X77870057Y-128761904D02*
X77965295Y-128809523D01*
X77965295Y-128809523D02*
X78060533Y-128809523D01*
X78060533Y-128809523D02*
X78203390Y-128761904D01*
X78203390Y-128761904D02*
X78774819Y-128190476D01*
X78774819Y-128190476D02*
X78774819Y-128809523D01*
X78108152Y-129666666D02*
X78774819Y-129666666D01*
X77727200Y-129428571D02*
X78441485Y-129190476D01*
X78441485Y-129190476D02*
X78441485Y-129809523D01*
X99289580Y-114607142D02*
X99337200Y-114559523D01*
X99337200Y-114559523D02*
X99384819Y-114416666D01*
X99384819Y-114416666D02*
X99384819Y-114321428D01*
X99384819Y-114321428D02*
X99337200Y-114178571D01*
X99337200Y-114178571D02*
X99241961Y-114083333D01*
X99241961Y-114083333D02*
X99146723Y-114035714D01*
X99146723Y-114035714D02*
X98956247Y-113988095D01*
X98956247Y-113988095D02*
X98813390Y-113988095D01*
X98813390Y-113988095D02*
X98622914Y-114035714D01*
X98622914Y-114035714D02*
X98527676Y-114083333D01*
X98527676Y-114083333D02*
X98432438Y-114178571D01*
X98432438Y-114178571D02*
X98384819Y-114321428D01*
X98384819Y-114321428D02*
X98384819Y-114416666D01*
X98384819Y-114416666D02*
X98432438Y-114559523D01*
X98432438Y-114559523D02*
X98480057Y-114607142D01*
X98480057Y-114988095D02*
X98432438Y-115035714D01*
X98432438Y-115035714D02*
X98384819Y-115130952D01*
X98384819Y-115130952D02*
X98384819Y-115369047D01*
X98384819Y-115369047D02*
X98432438Y-115464285D01*
X98432438Y-115464285D02*
X98480057Y-115511904D01*
X98480057Y-115511904D02*
X98575295Y-115559523D01*
X98575295Y-115559523D02*
X98670533Y-115559523D01*
X98670533Y-115559523D02*
X98813390Y-115511904D01*
X98813390Y-115511904D02*
X99384819Y-114940476D01*
X99384819Y-114940476D02*
X99384819Y-115559523D01*
X98384819Y-115892857D02*
X98384819Y-116511904D01*
X98384819Y-116511904D02*
X98765771Y-116178571D01*
X98765771Y-116178571D02*
X98765771Y-116321428D01*
X98765771Y-116321428D02*
X98813390Y-116416666D01*
X98813390Y-116416666D02*
X98861009Y-116464285D01*
X98861009Y-116464285D02*
X98956247Y-116511904D01*
X98956247Y-116511904D02*
X99194342Y-116511904D01*
X99194342Y-116511904D02*
X99289580Y-116464285D01*
X99289580Y-116464285D02*
X99337200Y-116416666D01*
X99337200Y-116416666D02*
X99384819Y-116321428D01*
X99384819Y-116321428D02*
X99384819Y-116035714D01*
X99384819Y-116035714D02*
X99337200Y-115940476D01*
X99337200Y-115940476D02*
X99289580Y-115892857D01*
X96039580Y-114607142D02*
X96087200Y-114559523D01*
X96087200Y-114559523D02*
X96134819Y-114416666D01*
X96134819Y-114416666D02*
X96134819Y-114321428D01*
X96134819Y-114321428D02*
X96087200Y-114178571D01*
X96087200Y-114178571D02*
X95991961Y-114083333D01*
X95991961Y-114083333D02*
X95896723Y-114035714D01*
X95896723Y-114035714D02*
X95706247Y-113988095D01*
X95706247Y-113988095D02*
X95563390Y-113988095D01*
X95563390Y-113988095D02*
X95372914Y-114035714D01*
X95372914Y-114035714D02*
X95277676Y-114083333D01*
X95277676Y-114083333D02*
X95182438Y-114178571D01*
X95182438Y-114178571D02*
X95134819Y-114321428D01*
X95134819Y-114321428D02*
X95134819Y-114416666D01*
X95134819Y-114416666D02*
X95182438Y-114559523D01*
X95182438Y-114559523D02*
X95230057Y-114607142D01*
X95230057Y-114988095D02*
X95182438Y-115035714D01*
X95182438Y-115035714D02*
X95134819Y-115130952D01*
X95134819Y-115130952D02*
X95134819Y-115369047D01*
X95134819Y-115369047D02*
X95182438Y-115464285D01*
X95182438Y-115464285D02*
X95230057Y-115511904D01*
X95230057Y-115511904D02*
X95325295Y-115559523D01*
X95325295Y-115559523D02*
X95420533Y-115559523D01*
X95420533Y-115559523D02*
X95563390Y-115511904D01*
X95563390Y-115511904D02*
X96134819Y-114940476D01*
X96134819Y-114940476D02*
X96134819Y-115559523D01*
X95230057Y-115940476D02*
X95182438Y-115988095D01*
X95182438Y-115988095D02*
X95134819Y-116083333D01*
X95134819Y-116083333D02*
X95134819Y-116321428D01*
X95134819Y-116321428D02*
X95182438Y-116416666D01*
X95182438Y-116416666D02*
X95230057Y-116464285D01*
X95230057Y-116464285D02*
X95325295Y-116511904D01*
X95325295Y-116511904D02*
X95420533Y-116511904D01*
X95420533Y-116511904D02*
X95563390Y-116464285D01*
X95563390Y-116464285D02*
X96134819Y-115892857D01*
X96134819Y-115892857D02*
X96134819Y-116511904D01*
X82179580Y-112744642D02*
X82227200Y-112697023D01*
X82227200Y-112697023D02*
X82274819Y-112554166D01*
X82274819Y-112554166D02*
X82274819Y-112458928D01*
X82274819Y-112458928D02*
X82227200Y-112316071D01*
X82227200Y-112316071D02*
X82131961Y-112220833D01*
X82131961Y-112220833D02*
X82036723Y-112173214D01*
X82036723Y-112173214D02*
X81846247Y-112125595D01*
X81846247Y-112125595D02*
X81703390Y-112125595D01*
X81703390Y-112125595D02*
X81512914Y-112173214D01*
X81512914Y-112173214D02*
X81417676Y-112220833D01*
X81417676Y-112220833D02*
X81322438Y-112316071D01*
X81322438Y-112316071D02*
X81274819Y-112458928D01*
X81274819Y-112458928D02*
X81274819Y-112554166D01*
X81274819Y-112554166D02*
X81322438Y-112697023D01*
X81322438Y-112697023D02*
X81370057Y-112744642D01*
X81370057Y-113125595D02*
X81322438Y-113173214D01*
X81322438Y-113173214D02*
X81274819Y-113268452D01*
X81274819Y-113268452D02*
X81274819Y-113506547D01*
X81274819Y-113506547D02*
X81322438Y-113601785D01*
X81322438Y-113601785D02*
X81370057Y-113649404D01*
X81370057Y-113649404D02*
X81465295Y-113697023D01*
X81465295Y-113697023D02*
X81560533Y-113697023D01*
X81560533Y-113697023D02*
X81703390Y-113649404D01*
X81703390Y-113649404D02*
X82274819Y-113077976D01*
X82274819Y-113077976D02*
X82274819Y-113697023D01*
X82274819Y-114649404D02*
X82274819Y-114077976D01*
X82274819Y-114363690D02*
X81274819Y-114363690D01*
X81274819Y-114363690D02*
X81417676Y-114268452D01*
X81417676Y-114268452D02*
X81512914Y-114173214D01*
X81512914Y-114173214D02*
X81560533Y-114077976D01*
X79179580Y-112744642D02*
X79227200Y-112697023D01*
X79227200Y-112697023D02*
X79274819Y-112554166D01*
X79274819Y-112554166D02*
X79274819Y-112458928D01*
X79274819Y-112458928D02*
X79227200Y-112316071D01*
X79227200Y-112316071D02*
X79131961Y-112220833D01*
X79131961Y-112220833D02*
X79036723Y-112173214D01*
X79036723Y-112173214D02*
X78846247Y-112125595D01*
X78846247Y-112125595D02*
X78703390Y-112125595D01*
X78703390Y-112125595D02*
X78512914Y-112173214D01*
X78512914Y-112173214D02*
X78417676Y-112220833D01*
X78417676Y-112220833D02*
X78322438Y-112316071D01*
X78322438Y-112316071D02*
X78274819Y-112458928D01*
X78274819Y-112458928D02*
X78274819Y-112554166D01*
X78274819Y-112554166D02*
X78322438Y-112697023D01*
X78322438Y-112697023D02*
X78370057Y-112744642D01*
X78370057Y-113125595D02*
X78322438Y-113173214D01*
X78322438Y-113173214D02*
X78274819Y-113268452D01*
X78274819Y-113268452D02*
X78274819Y-113506547D01*
X78274819Y-113506547D02*
X78322438Y-113601785D01*
X78322438Y-113601785D02*
X78370057Y-113649404D01*
X78370057Y-113649404D02*
X78465295Y-113697023D01*
X78465295Y-113697023D02*
X78560533Y-113697023D01*
X78560533Y-113697023D02*
X78703390Y-113649404D01*
X78703390Y-113649404D02*
X79274819Y-113077976D01*
X79274819Y-113077976D02*
X79274819Y-113697023D01*
X78274819Y-114316071D02*
X78274819Y-114411309D01*
X78274819Y-114411309D02*
X78322438Y-114506547D01*
X78322438Y-114506547D02*
X78370057Y-114554166D01*
X78370057Y-114554166D02*
X78465295Y-114601785D01*
X78465295Y-114601785D02*
X78655771Y-114649404D01*
X78655771Y-114649404D02*
X78893866Y-114649404D01*
X78893866Y-114649404D02*
X79084342Y-114601785D01*
X79084342Y-114601785D02*
X79179580Y-114554166D01*
X79179580Y-114554166D02*
X79227200Y-114506547D01*
X79227200Y-114506547D02*
X79274819Y-114411309D01*
X79274819Y-114411309D02*
X79274819Y-114316071D01*
X79274819Y-114316071D02*
X79227200Y-114220833D01*
X79227200Y-114220833D02*
X79179580Y-114173214D01*
X79179580Y-114173214D02*
X79084342Y-114125595D01*
X79084342Y-114125595D02*
X78893866Y-114077976D01*
X78893866Y-114077976D02*
X78655771Y-114077976D01*
X78655771Y-114077976D02*
X78465295Y-114125595D01*
X78465295Y-114125595D02*
X78370057Y-114173214D01*
X78370057Y-114173214D02*
X78322438Y-114220833D01*
X78322438Y-114220833D02*
X78274819Y-114316071D01*
X76179580Y-112744642D02*
X76227200Y-112697023D01*
X76227200Y-112697023D02*
X76274819Y-112554166D01*
X76274819Y-112554166D02*
X76274819Y-112458928D01*
X76274819Y-112458928D02*
X76227200Y-112316071D01*
X76227200Y-112316071D02*
X76131961Y-112220833D01*
X76131961Y-112220833D02*
X76036723Y-112173214D01*
X76036723Y-112173214D02*
X75846247Y-112125595D01*
X75846247Y-112125595D02*
X75703390Y-112125595D01*
X75703390Y-112125595D02*
X75512914Y-112173214D01*
X75512914Y-112173214D02*
X75417676Y-112220833D01*
X75417676Y-112220833D02*
X75322438Y-112316071D01*
X75322438Y-112316071D02*
X75274819Y-112458928D01*
X75274819Y-112458928D02*
X75274819Y-112554166D01*
X75274819Y-112554166D02*
X75322438Y-112697023D01*
X75322438Y-112697023D02*
X75370057Y-112744642D01*
X76274819Y-113697023D02*
X76274819Y-113125595D01*
X76274819Y-113411309D02*
X75274819Y-113411309D01*
X75274819Y-113411309D02*
X75417676Y-113316071D01*
X75417676Y-113316071D02*
X75512914Y-113220833D01*
X75512914Y-113220833D02*
X75560533Y-113125595D01*
X76274819Y-114173214D02*
X76274819Y-114363690D01*
X76274819Y-114363690D02*
X76227200Y-114458928D01*
X76227200Y-114458928D02*
X76179580Y-114506547D01*
X76179580Y-114506547D02*
X76036723Y-114601785D01*
X76036723Y-114601785D02*
X75846247Y-114649404D01*
X75846247Y-114649404D02*
X75465295Y-114649404D01*
X75465295Y-114649404D02*
X75370057Y-114601785D01*
X75370057Y-114601785D02*
X75322438Y-114554166D01*
X75322438Y-114554166D02*
X75274819Y-114458928D01*
X75274819Y-114458928D02*
X75274819Y-114268452D01*
X75274819Y-114268452D02*
X75322438Y-114173214D01*
X75322438Y-114173214D02*
X75370057Y-114125595D01*
X75370057Y-114125595D02*
X75465295Y-114077976D01*
X75465295Y-114077976D02*
X75703390Y-114077976D01*
X75703390Y-114077976D02*
X75798628Y-114125595D01*
X75798628Y-114125595D02*
X75846247Y-114173214D01*
X75846247Y-114173214D02*
X75893866Y-114268452D01*
X75893866Y-114268452D02*
X75893866Y-114458928D01*
X75893866Y-114458928D02*
X75846247Y-114554166D01*
X75846247Y-114554166D02*
X75798628Y-114601785D01*
X75798628Y-114601785D02*
X75703390Y-114649404D01*
X73344819Y-86026666D02*
X74059104Y-86026666D01*
X74059104Y-86026666D02*
X74201961Y-85979047D01*
X74201961Y-85979047D02*
X74297200Y-85883809D01*
X74297200Y-85883809D02*
X74344819Y-85740952D01*
X74344819Y-85740952D02*
X74344819Y-85645714D01*
X74344819Y-87026666D02*
X74344819Y-86455238D01*
X74344819Y-86740952D02*
X73344819Y-86740952D01*
X73344819Y-86740952D02*
X73487676Y-86645714D01*
X73487676Y-86645714D02*
X73582914Y-86550476D01*
X73582914Y-86550476D02*
X73630533Y-86455238D01*
X72860819Y-141906666D02*
X73575104Y-141906666D01*
X73575104Y-141906666D02*
X73717961Y-141859047D01*
X73717961Y-141859047D02*
X73813200Y-141763809D01*
X73813200Y-141763809D02*
X73860819Y-141620952D01*
X73860819Y-141620952D02*
X73860819Y-141525714D01*
X72860819Y-142859047D02*
X72860819Y-142382857D01*
X72860819Y-142382857D02*
X73337009Y-142335238D01*
X73337009Y-142335238D02*
X73289390Y-142382857D01*
X73289390Y-142382857D02*
X73241771Y-142478095D01*
X73241771Y-142478095D02*
X73241771Y-142716190D01*
X73241771Y-142716190D02*
X73289390Y-142811428D01*
X73289390Y-142811428D02*
X73337009Y-142859047D01*
X73337009Y-142859047D02*
X73432247Y-142906666D01*
X73432247Y-142906666D02*
X73670342Y-142906666D01*
X73670342Y-142906666D02*
X73765580Y-142859047D01*
X73765580Y-142859047D02*
X73813200Y-142811428D01*
X73813200Y-142811428D02*
X73860819Y-142716190D01*
X73860819Y-142716190D02*
X73860819Y-142478095D01*
X73860819Y-142478095D02*
X73813200Y-142382857D01*
X73813200Y-142382857D02*
X73765580Y-142335238D01*
D11*
X82272500Y-128754724D02*
X82272500Y-128245276D01*
X81227500Y-128754724D02*
X81227500Y-128245276D01*
X101522500Y-117592224D02*
X101522500Y-117082776D01*
X100477500Y-117592224D02*
X100477500Y-117082776D01*
X89332776Y-118227500D02*
X89842224Y-118227500D01*
X89332776Y-119272500D02*
X89842224Y-119272500D01*
X81995276Y-117022500D02*
X82504724Y-117022500D01*
X81995276Y-115977500D02*
X82504724Y-115977500D01*
X77495276Y-117022500D02*
X78004724Y-117022500D01*
X77495276Y-115977500D02*
X78004724Y-115977500D01*
X73977500Y-111245276D02*
X73977500Y-111754724D01*
X75022500Y-111245276D02*
X75022500Y-111754724D01*
X80750000Y-125450000D02*
X80750000Y-124050000D01*
X78750000Y-124050000D02*
X78750000Y-125450000D01*
X80050000Y-123350000D02*
X79450000Y-123350000D01*
X79450000Y-126150000D02*
X80050000Y-126150000D01*
X80750000Y-124050000D02*
G75*
G03*
X80050000Y-123350000I-700000J0D01*
G01*
X80050000Y-126150000D02*
G75*
G03*
X80750000Y-125450000I1J699999D01*
G01*
X78750000Y-125450000D02*
G75*
G03*
X79450000Y-126150000I699999J-1D01*
G01*
X79450000Y-123350000D02*
G75*
G03*
X78750000Y-124050000I0J-700000D01*
G01*
X96750000Y-118300000D02*
X96750000Y-119700000D01*
X98750000Y-119700000D02*
X98750000Y-118300000D01*
X97450000Y-120400000D02*
X98050000Y-120400000D01*
X98050000Y-117600000D02*
X97450000Y-117600000D01*
X96750000Y-119700000D02*
G75*
G03*
X97450000Y-120400000I700000J0D01*
G01*
X97450000Y-117600000D02*
G75*
G03*
X96750000Y-118300000I-1J-699999D01*
G01*
X98750000Y-118300000D02*
G75*
G03*
X98050000Y-117600000I-699999J1D01*
G01*
X98050000Y-120400000D02*
G75*
G03*
X98750000Y-119700000I0J700000D01*
G01*
X93250000Y-118300000D02*
X93250000Y-119700000D01*
X95250000Y-119700000D02*
X95250000Y-118300000D01*
X93950000Y-120400000D02*
X94550000Y-120400000D01*
X94550000Y-117600000D02*
X93950000Y-117600000D01*
X93250000Y-119700000D02*
G75*
G03*
X93950000Y-120400000I700000J0D01*
G01*
X93950000Y-117600000D02*
G75*
G03*
X93250000Y-118300000I-1J-699999D01*
G01*
X95250000Y-118300000D02*
G75*
G03*
X94550000Y-117600000I-699999J1D01*
G01*
X94550000Y-120400000D02*
G75*
G03*
X95250000Y-119700000I0J700000D01*
G01*
X84950000Y-108350000D02*
G75*
G03*
X84250000Y-109050000I0J-700000D01*
G01*
X84250000Y-110450000D02*
G75*
G03*
X84950000Y-111150000I699999J-1D01*
G01*
X85550000Y-111150000D02*
G75*
G03*
X86250000Y-110450000I1J699999D01*
G01*
X86250000Y-109050000D02*
G75*
G03*
X85550000Y-108350000I-700000J0D01*
G01*
X84950000Y-111150000D02*
X85550000Y-111150000D01*
X85550000Y-108350000D02*
X84950000Y-108350000D01*
X84250000Y-109050000D02*
X84250000Y-110450000D01*
X86250000Y-110450000D02*
X86250000Y-109050000D01*
X82200000Y-108350000D02*
G75*
G03*
X81500000Y-109050000I0J-700000D01*
G01*
X81500000Y-110450000D02*
G75*
G03*
X82200000Y-111150000I699999J-1D01*
G01*
X82800000Y-111150000D02*
G75*
G03*
X83500000Y-110450000I1J699999D01*
G01*
X83500000Y-109050000D02*
G75*
G03*
X82800000Y-108350000I-700000J0D01*
G01*
X82200000Y-111150000D02*
X82800000Y-111150000D01*
X82800000Y-108350000D02*
X82200000Y-108350000D01*
X81500000Y-109050000D02*
X81500000Y-110450000D01*
X83500000Y-110450000D02*
X83500000Y-109050000D01*
X79450000Y-108350000D02*
G75*
G03*
X78750000Y-109050000I0J-700000D01*
G01*
X78750000Y-110450000D02*
G75*
G03*
X79450000Y-111150000I699999J-1D01*
G01*
X80050000Y-111150000D02*
G75*
G03*
X80750000Y-110450000I1J699999D01*
G01*
X80750000Y-109050000D02*
G75*
G03*
X80050000Y-108350000I-700000J0D01*
G01*
X79450000Y-111150000D02*
X80050000Y-111150000D01*
X80050000Y-108350000D02*
X79450000Y-108350000D01*
X78750000Y-109050000D02*
X78750000Y-110450000D01*
X80750000Y-110450000D02*
X80750000Y-109050000D01*
X79240000Y-128353733D02*
X79240000Y-128646267D01*
X80260000Y-128353733D02*
X80260000Y-128646267D01*
X98010000Y-115396267D02*
X98010000Y-115103733D01*
X96990000Y-115396267D02*
X96990000Y-115103733D01*
X94760000Y-115396267D02*
X94760000Y-115103733D01*
X93740000Y-115396267D02*
X93740000Y-115103733D01*
X82740000Y-113241233D02*
X82740000Y-113533767D01*
X83760000Y-113241233D02*
X83760000Y-113533767D01*
X79740000Y-113241233D02*
X79740000Y-113533767D01*
X80760000Y-113241233D02*
X80760000Y-113533767D01*
X76740000Y-113241233D02*
X76740000Y-113533767D01*
X77760000Y-113241233D02*
X77760000Y-113533767D01*
X72450000Y-83760000D02*
X71120000Y-83760000D01*
X69850000Y-86360000D02*
X69850000Y-83760000D01*
X72450000Y-88960000D02*
X26610000Y-88960000D01*
X72450000Y-85090000D02*
X72450000Y-83760000D01*
X69850000Y-83760000D02*
X26610000Y-83760000D01*
X72450000Y-88960000D02*
X72450000Y-86360000D01*
X26610000Y-88960000D02*
X26610000Y-83760000D01*
X72450000Y-86360000D02*
X69850000Y-86360000D01*
X26610000Y-139640000D02*
X26610000Y-142240000D01*
X72450000Y-139640000D02*
X72450000Y-144840000D01*
X26610000Y-139640000D02*
X72450000Y-139640000D01*
X29210000Y-144840000D02*
X72450000Y-144840000D01*
X26610000Y-143510000D02*
X26610000Y-144840000D01*
X26610000Y-144840000D02*
X27940000Y-144840000D01*
X29210000Y-142240000D02*
X29210000Y-144840000D01*
X26610000Y-142240000D02*
X29210000Y-142240000D01*
%LPC*%
D12*
X81750000Y-129412500D03*
X81750000Y-127587500D03*
X101000000Y-118250000D03*
X101000000Y-116425000D03*
D13*
X90500000Y-118750000D03*
X88675000Y-118750000D03*
X81337500Y-116500000D03*
X83162500Y-116500000D03*
X76837500Y-116500000D03*
X78662500Y-116500000D03*
D14*
X74500000Y-110587500D03*
X74500000Y-112412500D03*
D15*
X79750000Y-125400000D03*
D16*
X79750000Y-124100000D03*
D17*
X97750000Y-118350000D03*
D18*
X97750000Y-119650000D03*
D17*
X94250000Y-118350000D03*
D18*
X94250000Y-119650000D03*
D16*
X85250000Y-109100000D03*
D15*
X85250000Y-110400000D03*
D16*
X82500000Y-109100000D03*
D15*
X82500000Y-110400000D03*
D16*
X79750000Y-109100000D03*
D15*
X79750000Y-110400000D03*
D19*
X79750000Y-127637500D03*
X79750000Y-129362500D03*
D20*
X97500000Y-116112500D03*
X97500000Y-114387500D03*
X94250000Y-116112500D03*
X94250000Y-114387500D03*
D19*
X83250000Y-112525000D03*
X83250000Y-114250000D03*
X80250000Y-112525000D03*
X80250000Y-114250000D03*
X77250000Y-112525000D03*
X77250000Y-114250000D03*
D21*
X127000000Y-140970000D03*
D22*
X129540000Y-140970000D03*
X132080000Y-140970000D03*
X134620000Y-140970000D03*
X137160000Y-140970000D03*
D21*
X101600000Y-87630000D03*
D22*
X99060000Y-87630000D03*
X96520000Y-87630000D03*
X93980000Y-87630000D03*
X91440000Y-87630000D03*
D21*
X137160000Y-87630000D03*
D22*
X134620000Y-87630000D03*
X132080000Y-87630000D03*
X129540000Y-87630000D03*
X127000000Y-87630000D03*
D21*
X133330000Y-109160000D03*
D22*
X135870000Y-109160000D03*
X133330000Y-106620000D03*
X135870000Y-106620000D03*
X133330000Y-104080000D03*
X135870000Y-104080000D03*
X133330000Y-101540000D03*
X135870000Y-101540000D03*
X133330000Y-99000000D03*
X135870000Y-99000000D03*
D21*
X133350000Y-130780000D03*
D22*
X135890000Y-130780000D03*
X133350000Y-128240000D03*
X135890000Y-128240000D03*
X133350000Y-125700000D03*
X135890000Y-125700000D03*
X133350000Y-123160000D03*
X135890000Y-123160000D03*
X133350000Y-120620000D03*
X135890000Y-120620000D03*
D21*
X91440000Y-140970000D03*
D22*
X93980000Y-140970000D03*
X96520000Y-140970000D03*
X99060000Y-140970000D03*
X101600000Y-140970000D03*
D21*
X109220000Y-140995000D03*
D22*
X111760000Y-140995000D03*
X114300000Y-140995000D03*
X116840000Y-140995000D03*
X119380000Y-140995000D03*
D23*
X54610000Y-121920000D03*
D24*
X57150000Y-121920000D03*
X59690000Y-121920000D03*
X62230000Y-121920000D03*
X64770000Y-121920000D03*
X67310000Y-121920000D03*
X69850000Y-121920000D03*
X72390000Y-121920000D03*
X74930000Y-121920000D03*
X77470000Y-121920000D03*
X80010000Y-121920000D03*
X82550000Y-121920000D03*
X85090000Y-121920000D03*
X87630000Y-121920000D03*
X90170000Y-121920000D03*
X92710000Y-121920000D03*
X95250000Y-121920000D03*
X97790000Y-121920000D03*
X100330000Y-121920000D03*
X102870000Y-121920000D03*
X105410000Y-121920000D03*
X107950000Y-121920000D03*
X110490000Y-121920000D03*
X113030000Y-121920000D03*
X113030000Y-106680000D03*
X110490000Y-106680000D03*
X107950000Y-106680000D03*
X105410000Y-106680000D03*
X102870000Y-106680000D03*
X100330000Y-106680000D03*
X97790000Y-106680000D03*
X95250000Y-106680000D03*
X92710000Y-106680000D03*
X90170000Y-106680000D03*
X87630000Y-106680000D03*
X85090000Y-106680000D03*
X82550000Y-106680000D03*
X80010000Y-106680000D03*
X77470000Y-106680000D03*
X74930000Y-106680000D03*
X72390000Y-106680000D03*
X69850000Y-106680000D03*
X67310000Y-106680000D03*
X64770000Y-106680000D03*
X62230000Y-106680000D03*
X59690000Y-106680000D03*
X57150000Y-106680000D03*
X54610000Y-106680000D03*
D21*
X119350000Y-87630000D03*
D22*
X116810000Y-87630000D03*
X114270000Y-87630000D03*
X111730000Y-87630000D03*
X109190000Y-87630000D03*
D21*
X71120000Y-85090000D03*
D22*
X71120000Y-87630000D03*
X68580000Y-85090000D03*
X68580000Y-87630000D03*
X66040000Y-85090000D03*
X66040000Y-87630000D03*
X63500000Y-85090000D03*
X63500000Y-87630000D03*
X60960000Y-85090000D03*
X60960000Y-87630000D03*
X58420000Y-85090000D03*
X58420000Y-87630000D03*
X55880000Y-85090000D03*
X55880000Y-87630000D03*
X53340000Y-85090000D03*
X53340000Y-87630000D03*
X50800000Y-85090000D03*
X50800000Y-87630000D03*
X48260000Y-85090000D03*
X48260000Y-87630000D03*
X45720000Y-85090000D03*
X45720000Y-87630000D03*
X43180000Y-85090000D03*
X43180000Y-87630000D03*
X40640000Y-85090000D03*
X40640000Y-87630000D03*
X38100000Y-85090000D03*
X38100000Y-87630000D03*
X35560000Y-85090000D03*
X35560000Y-87630000D03*
X33020000Y-85090000D03*
X33020000Y-87630000D03*
X30480000Y-85090000D03*
X30480000Y-87630000D03*
X27940000Y-85090000D03*
X27940000Y-87630000D03*
D21*
X27940000Y-143510000D03*
D22*
X27940000Y-140970000D03*
X30480000Y-143510000D03*
X30480000Y-140970000D03*
X33020000Y-143510000D03*
X33020000Y-140970000D03*
X35560000Y-143510000D03*
X35560000Y-140970000D03*
X38100000Y-143510000D03*
X38100000Y-140970000D03*
X40640000Y-143510000D03*
X40640000Y-140970000D03*
X43180000Y-143510000D03*
X43180000Y-140970000D03*
X45720000Y-143510000D03*
X45720000Y-140970000D03*
X48260000Y-143510000D03*
X48260000Y-140970000D03*
X50800000Y-143510000D03*
X50800000Y-140970000D03*
X53340000Y-143510000D03*
X53340000Y-140970000D03*
X55880000Y-143510000D03*
X55880000Y-140970000D03*
X58420000Y-143510000D03*
X58420000Y-140970000D03*
X60960000Y-143510000D03*
X60960000Y-140970000D03*
X63500000Y-143510000D03*
X63500000Y-140970000D03*
X66040000Y-143510000D03*
X66040000Y-140970000D03*
X68580000Y-143510000D03*
X68580000Y-140970000D03*
X71120000Y-143510000D03*
X71120000Y-140970000D03*
%LPD*%
M02*
